<?xml version="1.0"?>
<svg width="50" height="50" xmlns="http://www.w3.org/2000/svg" xmlns:svg="http://www.w3.org/2000/svg">
 <g class="layer">
  <title>Layer 1</title>
  <path d="m26.93,1.05c-1.2,-1.12 -3.05,-1.12 -4.24,0l-21.88,20.31c-0.94,0.88 -1.25,2.24 -0.78,3.43c0.46,1.19 1.61,1.98 2.9,1.98l1.56,0l0,17.19c0,3.45 2.8,6.25 6.25,6.25l28.13,0c3.45,0 6.25,-2.8 6.25,-6.25l0,-17.19l1.56,0c1.29,0 2.45,-0.79 2.91,-1.98c0.47,-1.19 0.16,-2.56 -0.78,-3.43l-21.88,-20.31zm-3.69,30.41l3.13,0c2.59,0 4.69,2.1 4.69,4.69l0,9.37l-12.51,0l0,-9.37c0,-2.59 2.1,-4.69 4.69,-4.69z" fill="#56B25E" id="svg_2" transform="matrix(0.979336 0 0 0.983471 0.640905 0.416666)"/>
 </g>
</svg>