<svg width="50" height="50" viewBox="0 0 50 50" fill="none" xmlns="http://www.w3.org/2000/svg">
<rect width="50" height="50" fill="#1E1E1E"/>
<path d="M27.1244 0.835042C25.923 -0.278348 24.0672 -0.278348 22.8756 0.835042L0.996783 21.1495C0.0591187 22.0285 -0.253436 23.3861 0.215396 24.5776C0.684228 25.7691 1.82701 26.5602 3.11629 26.5602H4.67907V43.7494C4.67907 47.197 7.48229 50 10.9302 50H39.0601C42.5079 50 45.3112 47.197 45.3112 43.7494V26.5602H46.8739C48.1632 26.5602 49.3158 25.7691 49.7846 24.5776C50.2534 23.3861 49.9409 22.0188 49.0032 21.1495L27.1244 0.835042ZM23.4323 31.2482H26.5579C29.1462 31.2482 31.2462 33.348 31.2462 35.9361V45.312H18.744V35.9361C18.744 33.348 20.844 31.2482 23.4323 31.2482Z" fill="#56B25E"/>
</svg>
